bicep_curl
version=1
nRows=101
nColumns=3
inDegrees=yes

# SIMM Motion File Header:
name bicep_curl
datacolumns 3
datarows 101
otherdata 1
range 0.0000 1.0000
endheader
time	/jointset/r_shoulder/r_shoulder_elev/value	/jointset/r_elbow/r_elbow_flex/value
0.0000	0.0000	21.0000
0.0100	0.0000	21.0460
0.0200	0.0000	21.0940
0.0300	0.0000	21.1443
0.0400	0.0000	21.1969
0.0500	0.0000	21.2519
0.0600	0.0000	21.3095
0.0700	0.0000	21.3696
0.0800	0.0000	21.4326
0.0900	0.0000	21.4984
0.1000	0.0000	21.5673
0.1100	0.0000	21.6393
0.1200	0.0000	21.7147
0.1300	0.0000	21.7935
0.1400	0.0000	21.8759
0.1500	0.0000	21.9621
0.1600	0.0000	22.0523
0.1700	0.0000	22.1467
0.1800	0.0000	22.2453
0.1900	0.0000	22.3485
0.2000	0.0000	22.4565
0.2100	0.0000	22.5694
0.2200	0.0000	22.6874
0.2300	0.0000	22.8110
0.2400	0.0000	22.9402
0.2500	0.0000	23.0753
0.2600	0.0000	23.2166
0.2700	0.0000	23.3645
0.2800	0.0000	23.5191
0.2900	0.0000	23.6808
0.3000	0.0000	23.8500
0.3100	0.0000	24.0270
0.3200	0.0000	24.2121
0.3300	0.0000	24.4056
0.3400	0.0000	24.6081
0.3500	0.0000	24.8199
0.3600	0.0000	25.0415
0.3700	0.0000	25.2732
0.3800	0.0000	25.5155
0.3900	0.0000	25.7690
0.4000	0.0000	26.0342
0.4100	0.0000	26.3115
0.4200	0.0000	26.6016
0.4300	0.0000	26.9050
0.4400	0.0000	27.2224
0.4500	0.0000	27.5543
0.4600	0.0000	27.9015
0.4700	0.0000	28.2647
0.4800	0.0000	28.6445
0.4900	0.0000	29.0418
0.5000	0.0000	29.4574
0.5100	0.0000	29.8921
0.5200	0.0000	30.3467
0.5300	0.0000	30.8223
0.5400	0.0000	31.3197
0.5500	0.0000	31.8399
0.5600	0.0000	32.3841
0.5700	0.0000	32.9533
0.5800	0.0000	33.5487
0.5900	0.0000	34.1714
0.6000	0.0000	34.8227
0.6100	0.0000	35.5040
0.6200	0.0000	36.2165
0.6300	0.0000	36.9619
0.6400	0.0000	37.7414
0.6500	0.0000	38.5568
0.6600	0.0000	39.4097
0.6700	0.0000	40.3018
0.6800	0.0000	41.2349
0.6900	0.0000	42.2109
0.7000	0.0000	43.2317
0.7100	0.0000	44.2995
0.7200	0.0000	45.4163
0.7300	0.0000	46.5845
0.7400	0.0000	47.8063
0.7500	0.0000	49.0843
0.7600	0.0000	50.4210
0.7700	0.0000	51.8192
0.7800	0.0000	53.2817
0.7900	0.0000	54.8113
0.8000	0.0000	56.4113
0.8100	0.0000	58.0848
0.8200	0.0000	59.8352
0.8300	0.0000	61.6661
0.8400	0.0000	63.5811
0.8500	0.0000	65.5841
0.8600	0.0000	67.6792
0.8700	0.0000	69.8705
0.8800	0.0000	72.1626
0.8900	0.0000	74.5601
0.9000	0.0000	77.0677
0.9100	0.0000	79.6906
0.9200	0.0000	82.4340
0.9300	0.0000	85.3036
0.9400	0.0000	88.3050
0.9500	0.0000	91.4443
0.9600	0.0000	94.7280
0.9700	0.0000	98.1625
0.9800	0.0000	101.7550
0.9900	0.0000	105.5125
1.0000	0.0000	109.4427
